<svg width="68" height="68" viewBox="0 0 68 68" fill="none" xmlns="http://www.w3.org/2000/svg">
<rect x="0.580811" width="67.1856" height="68" rx="10" fill="#ECF0F3"/>
<path d="M33.969 18.0789C33.3719 18.2853 32.9654 18.8315 32.9654 19.4323C32.9654 19.6266 32.9972 19.8632 33.0353 19.9604C33.1051 20.1424 33.0988 20.1485 30.6342 22.5033L28.1695 24.8582L27.8329 24.7004C26.8546 24.227 25.6668 24.4212 24.8664 25.1798C24.0724 25.9446 23.8691 27.0795 24.3646 28.0141L24.5297 28.3358L22.0651 30.6906C19.9943 32.6692 19.5814 33.0394 19.4734 32.9969C19.4035 32.9726 19.1304 32.9544 18.8636 32.9544C18.438 32.9544 18.3491 32.9787 18.0696 33.1365C17.879 33.2518 17.6885 33.4339 17.5678 33.616C17.4026 33.883 17.3772 33.968 17.3772 34.3746C17.3772 34.7691 17.4026 34.8784 17.5551 35.1272C18.2538 36.2561 19.9752 36.0497 20.3945 34.7813C20.4643 34.5688 20.4516 34.2108 20.3627 33.8345C20.331 33.7009 20.4898 33.5249 21.7665 32.3172C22.5606 31.5646 23.1831 31.0062 23.1577 31.073C23.1259 31.1398 22.9544 31.6192 22.7702 32.1351C22.1604 33.8223 21.9444 35.2547 22.0016 37.1361C22.0841 39.8611 22.9226 42.392 24.4916 44.6315L24.949 45.2931L24.5424 45.6815C24.0597 46.1306 23.9263 46.3491 23.9834 46.5736C24.0343 46.7679 26.2448 48.9103 26.4989 49.0134C26.6005 49.0499 26.7466 49.0681 26.8229 49.0499C26.9054 49.0256 27.5216 48.4854 28.1949 47.836C29.3066 46.7679 29.4145 46.6465 29.4145 46.4523C29.4145 46.2641 29.3066 46.1427 28.1568 45.0442C27.199 44.129 26.8765 43.8085 26.6044 43.8468C26.4507 43.8684 26.3131 44.0046 26.086 44.2127L25.6858 44.583L25.311 44.0489C24.2756 42.5619 23.5261 40.7655 23.1831 38.9326C22.9925 37.9129 22.948 36.1225 23.0941 35.0483C23.3482 33.1304 24.066 31.1883 25.1014 29.6225L25.4317 29.1127L25.7239 29.2401C25.959 29.3433 26.1432 29.3676 26.6831 29.3736C27.2993 29.3736 27.3818 29.3615 27.7693 29.1855C28.7539 28.7364 29.2875 27.9292 29.2875 26.8913C29.2811 26.6243 29.2367 26.333 29.1605 26.1266C29.1032 25.9776 29.0588 25.8366 29.0411 25.7804C29.0372 25.768 29.0346 25.7597 29.0334 25.7564C29.0334 25.6896 29.7449 25.2648 30.4626 24.9067C33.5752 23.3469 37.3039 22.9767 40.6896 23.8871C42.0299 24.2513 43.4846 24.8885 44.6153 25.6047L45.1742 25.9628L44.7868 26.3451C44.567 26.5639 44.4239 26.6966 44.4035 26.8461C44.3678 27.107 44.7061 27.419 45.6634 28.3297C46.8067 29.4161 46.9338 29.5254 47.1371 29.5254C47.334 29.5254 47.461 29.4222 48.579 28.354C49.2587 27.7167 49.824 27.128 49.8494 27.0491C49.8685 26.9763 49.8494 26.8367 49.8113 26.7396C49.7033 26.4968 47.461 24.3848 47.2578 24.3362C47.0227 24.2816 46.794 24.4091 46.324 24.8703L45.9174 25.2587L45.2124 24.8096C43.9165 23.9842 42.1633 23.2316 40.715 22.8796C39.1715 22.5033 38.1488 22.4002 36.4845 22.4426C34.6868 22.4851 32.9972 22.8007 31.5425 23.3591C31.2313 23.4805 30.9708 23.5715 30.9645 23.5594C30.9518 23.5472 31.5806 22.9342 32.3619 22.1877L33.7785 20.8343L34.1405 20.9132C35.1505 21.1256 36.0335 20.4398 36.0271 19.4384C36.0271 18.6373 35.3475 18 34.4963 18C34.3375 18 34.1024 18.0364 33.969 18.0789ZM34.8456 19.1046C35.2077 19.402 34.9727 19.9968 34.4899 19.9968C34.2168 19.9968 33.9881 19.7601 33.9881 19.4809C33.9881 19.0318 34.4963 18.8133 34.8456 19.1046ZM27.1659 25.4894C28.2902 25.811 28.6523 27.2069 27.8201 28.002C27.5152 28.2933 27.1659 28.4329 26.7149 28.4329C25.9907 28.4329 25.3873 28.0141 25.1904 27.3769C25.0697 26.9945 25.0697 26.8913 25.1967 26.4908C25.3301 26.0538 25.7176 25.6714 26.1749 25.5197C26.6005 25.3801 26.7593 25.3741 27.1659 25.4894ZM47.8993 26.2177L48.6298 26.9156L47.8803 27.6318L47.1371 28.3419L46.3939 27.6318L45.6443 26.9156L46.3748 26.2177C46.775 25.8353 47.118 25.5197 47.1371 25.5197C47.1561 25.5197 47.4991 25.8353 47.8993 26.2177ZM19.2828 34.0469C19.6005 34.3443 19.3781 34.8662 18.9335 34.8662C18.5079 34.8662 18.2538 34.3018 18.5523 34.0165C18.7366 33.8405 19.0859 33.8527 19.2828 34.0469ZM27.4454 47.1563L26.6831 47.8846L25.9399 47.1684L25.1904 46.4583L25.9526 45.73L26.7149 45.0017L27.4581 45.7118L28.2076 46.428L27.4454 47.1563Z" fill="#7C919E"/>
<path d="M33.969 18.0789C33.3719 18.2853 32.9654 18.8315 32.9654 19.4323C32.9654 19.6266 32.9972 19.8632 33.0353 19.9604C33.1051 20.1424 33.0988 20.1485 30.6342 22.5033L28.1695 24.8582L27.8329 24.7004C26.8546 24.227 25.6668 24.4212 24.8664 25.1798C24.0724 25.9446 23.8691 27.0795 24.3646 28.0141L24.5297 28.3358L22.0651 30.6906C19.9943 32.6692 19.5814 33.0394 19.4734 32.9969C19.4035 32.9726 19.1304 32.9544 18.8636 32.9544C18.438 32.9544 18.3491 32.9787 18.0696 33.1365C17.879 33.2518 17.6885 33.4339 17.5678 33.616C17.4026 33.883 17.3772 33.968 17.3772 34.3746C17.3772 34.7691 17.4026 34.8784 17.5551 35.1272C18.2538 36.2561 19.9752 36.0497 20.3945 34.7813C20.4643 34.5688 20.4516 34.2108 20.3627 33.8345C20.331 33.7009 20.4898 33.5249 21.7665 32.3172C22.5606 31.5646 23.1831 31.0062 23.1577 31.073C23.1259 31.1398 22.9544 31.6192 22.7702 32.1351C22.1604 33.8223 21.9444 35.2547 22.0016 37.1361C22.0841 39.8611 22.9226 42.392 24.4916 44.6315L24.949 45.2931L24.5424 45.6815C24.0597 46.1306 23.9263 46.3491 23.9834 46.5736C24.0343 46.7679 26.2448 48.9103 26.4989 49.0134C26.6005 49.0499 26.7466 49.0681 26.8229 49.0499C26.9054 49.0256 27.5216 48.4854 28.1949 47.836C29.3066 46.7679 29.4145 46.6465 29.4145 46.4523C29.4145 46.2641 29.3066 46.1427 28.1568 45.0442C27.199 44.129 26.8765 43.8085 26.6044 43.8468C26.4507 43.8684 26.3131 44.0046 26.086 44.2127L25.6858 44.583L25.311 44.0489C24.2756 42.5619 23.5261 40.7655 23.1831 38.9326C22.9925 37.9129 22.948 36.1225 23.0941 35.0483C23.3482 33.1304 24.066 31.1883 25.1014 29.6225L25.4317 29.1127L25.7239 29.2401C25.959 29.3433 26.1432 29.3676 26.6831 29.3736C27.2993 29.3736 27.3818 29.3615 27.7693 29.1855C28.7539 28.7364 29.2875 27.9292 29.2875 26.8913C29.2811 26.6243 29.2367 26.333 29.1605 26.1266C29.1032 25.9776 29.0588 25.8366 29.0411 25.7804C29.0372 25.768 29.0346 25.7597 29.0334 25.7564C29.0334 25.6896 29.7449 25.2648 30.4626 24.9067C33.5752 23.3469 37.3039 22.9767 40.6896 23.8871C42.0299 24.2513 43.4846 24.8885 44.6153 25.6047L45.1742 25.9628L44.7868 26.3451C44.567 26.5639 44.4239 26.6966 44.4035 26.8461C44.3678 27.107 44.7061 27.419 45.6634 28.3297C46.8067 29.4161 46.9338 29.5254 47.1371 29.5254C47.334 29.5254 47.461 29.4222 48.579 28.354C49.2587 27.7167 49.824 27.128 49.8494 27.0491C49.8685 26.9763 49.8494 26.8367 49.8113 26.7396C49.7033 26.4968 47.461 24.3848 47.2578 24.3362C47.0227 24.2816 46.794 24.4091 46.324 24.8703L45.9174 25.2587L45.2124 24.8096C43.9165 23.9842 42.1633 23.2316 40.715 22.8796C39.1715 22.5033 38.1488 22.4002 36.4845 22.4426C34.6868 22.4851 32.9972 22.8007 31.5425 23.3591C31.2313 23.4805 30.9708 23.5715 30.9645 23.5594C30.9518 23.5472 31.5806 22.9342 32.3619 22.1877L33.7785 20.8343L34.1405 20.9132C35.1505 21.1256 36.0335 20.4398 36.0271 19.4384C36.0271 18.6373 35.3475 18 34.4963 18C34.3375 18 34.1024 18.0364 33.969 18.0789ZM34.8456 19.1046C35.2077 19.402 34.9727 19.9968 34.4899 19.9968C34.2168 19.9968 33.9881 19.7601 33.9881 19.4809C33.9881 19.0318 34.4963 18.8133 34.8456 19.1046ZM27.1659 25.4894C28.2902 25.811 28.6523 27.2069 27.8201 28.002C27.5152 28.2933 27.1659 28.4329 26.7149 28.4329C25.9907 28.4329 25.3873 28.0141 25.1904 27.3769C25.0697 26.9945 25.0697 26.8913 25.1967 26.4908C25.3301 26.0538 25.7176 25.6714 26.1749 25.5197C26.6005 25.3801 26.7593 25.3741 27.1659 25.4894ZM47.8993 26.2177L48.6298 26.9156L47.8803 27.6318L47.1371 28.3419L46.3939 27.6318L45.6443 26.9156L46.3748 26.2177C46.775 25.8353 47.118 25.5197 47.1371 25.5197C47.1561 25.5197 47.4991 25.8353 47.8993 26.2177ZM19.2828 34.0469C19.6005 34.3443 19.3781 34.8662 18.9335 34.8662C18.5079 34.8662 18.2538 34.3018 18.5523 34.0165C18.7366 33.8405 19.0859 33.8527 19.2828 34.0469ZM27.4454 47.1563L26.6831 47.8846L25.9399 47.1684L25.1904 46.4583L25.9526 45.73L26.7149 45.0017L27.4581 45.7118L28.2076 46.428L27.4454 47.1563Z" stroke="#7C919E"/>
<mask id="path-3-inside-1_323_440" fill="white">
<path d="M30.6106 28.6011C30.4582 28.6557 28.5716 30.4583 28.5081 30.6161C28.4573 30.7374 28.8765 31.7813 31.1188 37.1465C32.5925 40.6605 33.8248 43.5798 33.8693 43.6284C33.9138 43.683 35.2033 44.1867 36.7405 44.7511L39.5354 45.7768L40.4247 47.4398C41.3521 49.1756 41.4601 49.3152 41.7968 49.2363C41.8857 49.212 43.6643 47.5551 46.0337 45.2974C50.3722 41.14 50.2706 41.2614 49.9974 40.9397C49.9339 40.8669 49.1145 40.436 48.1744 39.9808L46.472 39.1493L45.3985 36.4789C44.8077 35.0101 44.2805 33.7781 44.2233 33.7356C44.128 33.6628 30.7949 28.5525 30.7377 28.5647C30.7186 28.5647 30.6615 28.5829 30.6106 28.6011ZM37.2486 32.0787C40.6725 33.3836 43.4865 34.4821 43.5055 34.5125C43.5246 34.5428 43.9819 35.6595 44.5219 36.9948L45.5001 39.4285L42.6607 42.1353L39.8276 44.8483L37.2804 43.9136C35.8829 43.3977 34.7141 42.9607 34.6824 42.9425C34.6506 42.9243 33.4882 40.1993 32.1034 36.8855L29.5752 30.8528L29.715 30.7253L29.8484 30.5918L33.1261 33.7235L36.4038 36.8552L36.245 37.1222C35.9083 37.6745 35.7877 38.5667 35.9719 39.21C36.3657 40.6302 37.8457 41.5588 39.3322 41.316C40.5962 41.1036 41.5808 40.1629 41.8031 38.9551C42.0572 37.5349 41.0854 36.1208 39.6053 35.7445C38.9256 35.5685 37.9918 35.6777 37.4138 36.0055L37.1343 36.1572L33.8629 33.0316L30.5852 29.8999L30.7059 29.7724C30.7758 29.6996 30.8711 29.6571 30.9283 29.6693C30.9791 29.6814 33.8248 30.7678 37.2486 32.0787ZM39.5291 36.7277C39.9356 36.8612 40.4628 37.3346 40.6534 37.7352C40.8503 38.1661 40.8567 38.8398 40.6661 39.2464C40.4755 39.647 40.1198 39.999 39.7069 40.1932C39.2242 40.4178 38.5508 40.4299 38.0554 40.2175C37.6361 40.0354 37.1407 39.5317 37.0009 39.1432C36.8866 38.8155 36.8675 38.2875 36.9628 37.9537C37.1153 37.4317 37.7187 36.843 38.2586 36.6974C38.5762 36.6063 39.2051 36.6245 39.5291 36.7277ZM47.6979 40.873C48.2061 41.1157 48.6381 41.3342 48.6635 41.3585C48.6889 41.3828 47.1707 42.8697 45.2841 44.6722C43.4039 46.4687 41.8476 47.9314 41.8349 47.9193C41.8158 47.901 41.53 47.3609 41.187 46.7115L40.5708 45.5341L43.3848 42.8454L46.1925 40.1629L46.4847 40.2964C46.6435 40.3692 47.1898 40.6302 47.6979 40.873Z"/>
</mask>
<path d="M30.6106 28.6011C30.4582 28.6557 28.5716 30.4583 28.5081 30.6161C28.4573 30.7374 28.8765 31.7813 31.1188 37.1465C32.5925 40.6605 33.8248 43.5798 33.8693 43.6284C33.9138 43.683 35.2033 44.1867 36.7405 44.7511L39.5354 45.7768L40.4247 47.4398C41.3521 49.1756 41.4601 49.3152 41.7968 49.2363C41.8857 49.212 43.6643 47.5551 46.0337 45.2974C50.3722 41.14 50.2706 41.2614 49.9974 40.9397C49.9339 40.8669 49.1145 40.436 48.1744 39.9808L46.472 39.1493L45.3985 36.4789C44.8077 35.0101 44.2805 33.7781 44.2233 33.7356C44.128 33.6628 30.7949 28.5525 30.7377 28.5647C30.7186 28.5647 30.6615 28.5829 30.6106 28.6011ZM37.2486 32.0787C40.6725 33.3836 43.4865 34.4821 43.5055 34.5125C43.5246 34.5428 43.9819 35.6595 44.5219 36.9948L45.5001 39.4285L42.6607 42.1353L39.8276 44.8483L37.2804 43.9136C35.8829 43.3977 34.7141 42.9607 34.6824 42.9425C34.6506 42.9243 33.4882 40.1993 32.1034 36.8855L29.5752 30.8528L29.715 30.7253L29.8484 30.5918L33.1261 33.7235L36.4038 36.8552L36.245 37.1222C35.9083 37.6745 35.7877 38.5667 35.9719 39.21C36.3657 40.6302 37.8457 41.5588 39.3322 41.316C40.5962 41.1036 41.5808 40.1629 41.8031 38.9551C42.0572 37.5349 41.0854 36.1208 39.6053 35.7445C38.9256 35.5685 37.9918 35.6777 37.4138 36.0055L37.1343 36.1572L33.8629 33.0316L30.5852 29.8999L30.7059 29.7724C30.7758 29.6996 30.8711 29.6571 30.9283 29.6693C30.9791 29.6814 33.8248 30.7678 37.2486 32.0787ZM39.5291 36.7277C39.9356 36.8612 40.4628 37.3346 40.6534 37.7352C40.8503 38.1661 40.8567 38.8398 40.6661 39.2464C40.4755 39.647 40.1198 39.999 39.7069 40.1932C39.2242 40.4178 38.5508 40.4299 38.0554 40.2175C37.6361 40.0354 37.1407 39.5317 37.0009 39.1432C36.8866 38.8155 36.8675 38.2875 36.9628 37.9537C37.1153 37.4317 37.7187 36.843 38.2586 36.6974C38.5762 36.6063 39.2051 36.6245 39.5291 36.7277ZM47.6979 40.873C48.2061 41.1157 48.6381 41.3342 48.6635 41.3585C48.6889 41.3828 47.1707 42.8697 45.2841 44.6722C43.4039 46.4687 41.8476 47.9314 41.8349 47.9193C41.8158 47.901 41.53 47.3609 41.187 46.7115L40.5708 45.5341L43.3848 42.8454L46.1925 40.1629L46.4847 40.2964C46.6435 40.3692 47.1898 40.6302 47.6979 40.873Z" fill="#7C919E"/>
<path d="M30.6106 28.6011L19.8171 -1.52365L30.6106 28.6011ZM28.5081 30.6161L58.1932 42.5658L58.1108 42.7703L58.0257 42.9737L28.5081 30.6161ZM31.1188 37.1465L1.6088 49.5222L1.60125 49.5042L1.59373 49.4862L31.1188 37.1465ZM33.8693 43.6284L57.4684 22.0163L58.0978 22.7036L58.6862 23.4263L33.8693 43.6284ZM36.7405 44.7511L25.716 74.7922L25.7108 74.7902L36.7405 44.7511ZM39.5354 45.7768L50.5599 15.7358L62.0047 19.9359L67.7538 30.6864L39.5354 45.7768ZM40.4247 47.4398L68.6431 32.3493L68.6488 32.3599L40.4247 47.4398ZM41.7968 49.2363L50.224 80.1067L49.6637 80.2596L49.0983 80.3921L41.7968 49.2363ZM46.0337 45.2974L68.1736 68.402L68.1413 68.433L68.1088 68.4639L46.0337 45.2974ZM49.9974 40.9397L74.1134 19.906L74.2526 20.0656L74.3897 20.227L49.9974 40.9397ZM48.1744 39.9808L34.2292 68.7824L34.1798 68.7585L34.1305 68.7344L48.1744 39.9808ZM46.472 39.1493L32.4281 67.9029L21.3711 62.5024L16.7813 51.085L46.472 39.1493ZM45.3985 36.4789L75.087 24.5377L75.0892 24.5432L45.3985 36.4789ZM44.2233 33.7356L25.1365 59.4201L24.9626 59.2909L24.7905 59.1593L44.2233 33.7356ZM30.7377 28.5647L37.3838 59.8669L34.0974 60.5647H30.7377V28.5647ZM37.2486 32.0787L25.8525 61.9807L25.8294 61.9719L25.8063 61.963L37.2486 32.0787ZM44.5219 36.9948L74.1881 24.9983L74.2007 25.0294L74.2131 25.0604L44.5219 36.9948ZM45.5001 39.4285L75.1914 27.4942L83.2817 47.6219L67.5804 62.5901L45.5001 39.4285ZM42.6607 42.1353L20.5287 19.0232L20.5545 18.9984L20.5804 18.9737L42.6607 42.1353ZM39.8276 44.8483L61.9597 67.9604L47.5432 81.7655L28.8045 74.8897L39.8276 44.8483ZM37.2804 43.9136L26.2573 73.9551L26.2279 73.9443L26.1985 73.9335L37.2804 43.9136ZM32.1034 36.8855L61.6166 24.5173L61.6228 24.5323L61.6291 24.5472L32.1034 36.8855ZM29.5752 30.8528L0.062048 43.2209L-8.65815 22.4126L8.01178 7.20922L29.5752 30.8528ZM29.715 30.7253L52.3531 53.342L51.8277 53.8679L51.2785 54.3688L29.715 30.7253ZM29.8484 30.5918L7.21029 7.97505L29.3281 -14.1636L51.9545 7.45486L29.8484 30.5918ZM33.1261 33.7235L11.0199 56.8604L11.0199 56.8604L33.1261 33.7235ZM36.4038 36.8552L58.51 13.7182L76.9284 31.3161L63.908 53.2112L36.4038 36.8552ZM36.245 37.1222L63.7492 53.4782L63.6598 53.6286L63.5687 53.778L36.245 37.1222ZM35.9719 39.21L66.7355 30.4011L66.7724 30.5298L66.8081 30.6587L35.9719 39.21ZM39.3322 41.316L44.6352 72.8735L44.5627 72.8857L44.4902 72.8976L39.3322 41.316ZM41.8031 38.9551L73.303 44.5908L73.2889 44.6696L73.2744 44.7483L41.8031 38.9551ZM39.6053 35.7445L31.7205 66.7579L31.6519 66.7404L31.5834 66.7227L39.6053 35.7445ZM37.4138 36.0055L53.1966 63.8426L52.9401 63.988L52.6811 64.1286L37.4138 36.0055ZM37.1343 36.1572L52.4016 64.2803L31.8971 75.4116L15.0281 59.2941L37.1343 36.1572ZM30.5852 29.8999L8.47907 53.0368L-14.5548 31.0291L7.34983 7.89726L30.5852 29.8999ZM30.7059 29.7724L7.47053 7.76981L7.54237 7.69394L7.61471 7.61853L30.7059 29.7724ZM30.9283 29.6693L37.5744 -1.63294L37.9697 -1.54902L38.3627 -1.45514L30.9283 29.6693ZM39.5291 36.7277L49.2399 6.23674L49.3773 6.28049L49.5143 6.32547L39.5291 36.7277ZM40.6534 37.7352L69.55 23.9879L69.6559 24.2106L69.7584 24.4348L40.6534 37.7352ZM40.6661 39.2464L69.642 52.8257L69.6026 52.9098L69.5627 52.9937L40.6661 39.2464ZM39.7069 40.1932L53.3274 69.1498L53.2654 69.179L53.2032 69.2079L39.7069 40.1932ZM38.0554 40.2175L25.4461 69.6285L25.3771 69.5989L25.3082 69.569L38.0554 40.2175ZM37.0009 39.1432L6.89039 49.9764L6.83792 49.8305L6.78687 49.6842L37.0009 39.1432ZM36.9628 37.9537L6.19184 29.1703L6.21875 29.076L6.24623 28.9819L36.9628 37.9537ZM38.2586 36.6974L47.0759 67.4586L46.8352 67.5276L46.5934 67.5929L38.2586 36.6974ZM41.8349 47.9193L19.7287 71.0562L41.8349 47.9193ZM41.187 46.7115L12.8917 61.6572L12.863 61.603L12.8346 61.5487L41.187 46.7115ZM40.5708 45.5341L12.2185 60.3713L1.05224 39.0338L18.4647 22.3971L40.5708 45.5341ZM43.3848 42.8454L65.491 65.9824L65.491 65.9824L43.3848 42.8454ZM46.1925 40.1629L24.0863 17.0259L39.7668 2.04401L59.4922 11.0576L46.1925 40.1629ZM46.4847 40.2964L59.7844 11.1911L59.8044 11.2002L59.8244 11.2094L46.4847 40.2964ZM41.4041 58.7258C44.7033 57.5438 47.0348 56.0694 47.5288 55.7612C48.4258 55.2016 49.1057 54.7143 49.4526 54.4606C50.1641 53.9403 50.6863 53.5108 50.8713 53.3578C51.3 53.0033 51.5873 52.7438 51.6182 52.7161C51.7443 52.6027 51.7485 52.5955 51.6506 52.6892C51.5505 52.785 51.5665 52.773 51.6973 52.6395C51.7315 52.6046 52.0194 52.3122 52.4112 51.8762C52.582 51.6862 53.0503 51.1618 53.6189 50.4445C53.8977 50.0927 54.4223 49.4167 55.0269 48.5226C55.3886 47.9878 56.9092 45.7554 58.1932 42.5658L-1.17701 18.6664C0.110939 15.4669 1.63907 13.2214 2.01162 12.6705C2.6271 11.7603 3.16591 11.0653 3.46206 10.6916C4.06531 9.93047 4.58088 9.35116 4.80965 9.09661C5.31736 8.53167 5.76428 8.07206 5.98662 7.84517C6.49381 7.32759 7.00292 6.83194 7.40146 6.45054C7.8022 6.06704 8.31057 5.58914 8.83529 5.1175C9.06545 4.91063 9.52568 4.50013 10.087 4.03596C10.3383 3.82819 10.9167 3.35421 11.6726 2.80141C12.0417 2.53148 12.7408 2.03086 13.6539 1.46124C14.164 1.14301 16.5085 -0.338173 19.8171 -1.52365L41.4041 58.7258ZM58.0257 42.9737C59.5233 39.3966 60.0802 36.2383 60.3118 34.1391C60.5496 31.9831 60.5246 30.1857 60.4597 28.9598C60.3348 26.5985 59.9695 24.7725 59.787 23.9307C59.4132 22.2066 58.9774 20.9321 58.8939 20.6851C58.6565 19.9829 58.4864 19.5845 58.6644 20.0295C58.9321 20.6985 59.4903 22.0465 60.6439 24.8067L1.59373 49.4862C0.505037 46.8813 -0.267515 45.0248 -0.757389 43.8002C-0.958115 43.2984 -1.36362 42.281 -1.73539 41.1812C-1.8861 40.7355 -2.36386 39.3176 -2.75963 37.4922C-2.95312 36.5998 -3.32433 34.7337 -3.45092 32.3411C-3.54351 30.5911 -3.77584 24.8661 -1.00954 18.2585L58.0257 42.9737ZM60.6288 24.7707C61.3615 26.5177 62.0201 28.0834 62.4949 29.2041C62.7367 29.7748 62.9066 30.1731 63.007 30.4055C63.0648 30.5395 63.0573 30.5204 63.0125 30.4203C63.0022 30.3971 62.9003 30.1684 62.7533 29.8587C62.6944 29.7348 62.5014 29.329 62.2325 28.8135C62.1085 28.5759 61.8195 28.0277 61.4176 27.3473C61.2163 27.0066 60.8639 26.4237 60.3898 25.7215C60.1464 25.3609 59.8059 24.8722 59.3785 24.3079C58.9724 23.7717 58.3276 22.9545 57.4684 22.0163L10.2702 65.2404C8.71729 63.5448 7.70113 62.0575 7.3463 61.5319C6.87121 60.8282 6.51766 60.2435 6.31511 59.9006C5.91063 59.216 5.61855 58.6621 5.4909 58.4175C5.21459 57.8879 5.01194 57.4624 4.9413 57.3137C4.77056 56.9542 4.63623 56.6543 4.58505 56.5398C4.45863 56.257 4.33604 55.9744 4.24908 55.773C4.05979 55.3346 3.82123 54.7743 3.56515 54.1698C3.04425 52.9403 2.34987 51.2893 1.6088 49.5222L60.6288 24.7707ZM58.6862 23.4263C56.8434 21.1626 55.0907 19.6518 54.2333 18.9446C53.2441 18.1288 52.3911 17.526 51.845 17.1554C50.7711 16.4267 49.882 15.921 49.4594 15.6856C48.5708 15.1909 47.8599 14.8529 47.6213 14.7401C47.0491 14.4695 46.6197 14.2894 46.5515 14.2607C46.3213 14.1636 46.2338 14.1315 46.3963 14.195C46.6564 14.2967 47.1474 14.4834 47.7701 14.7121L25.7108 74.7902C24.7964 74.4545 23.874 74.107 23.094 73.8021C22.7363 73.6623 22.222 73.4587 21.6895 73.2343C21.4701 73.1418 20.9208 72.9089 20.2634 72.5981C19.9824 72.4652 19.2377 72.1103 18.3246 71.6019C17.8897 71.3597 16.9907 70.848 15.9092 70.1141C15.5225 69.8517 12.1871 67.6811 9.05241 63.8304L58.6862 23.4263ZM47.7649 14.7101L50.5599 15.7358L28.511 75.8178L25.716 74.7922L47.7649 14.7101ZM67.7538 30.6864L68.6431 32.3493L12.2063 62.5303L11.317 60.8673L67.7538 30.6864ZM68.6488 32.3599C68.892 32.815 68.8841 32.7933 68.788 32.6246C68.7268 32.5172 68.5437 32.1978 68.272 31.7654C68.0185 31.3621 67.5009 30.56 66.7547 29.584C65.7255 28.2376 61.517 22.7831 53.5724 19.5688C44.4246 15.8678 36.5709 17.594 34.4952 18.0804L49.0983 80.3921C46.8543 80.918 38.8609 82.6563 29.5692 78.8971C21.4807 75.6246 17.1241 70.0414 15.9099 68.4531C14.4273 66.5137 13.4322 64.7493 13.178 64.3031C12.7903 63.6226 12.4212 62.9324 12.2007 62.5197L68.6488 32.3599ZM33.3696 18.3658C31.5068 18.8744 30.0421 19.4567 29.124 19.8528C28.1554 20.2706 27.3664 20.6681 26.8062 20.9652C25.7159 21.5436 24.8793 22.0694 24.4137 22.371C23.4788 22.9765 22.7827 23.4988 22.4988 23.714C21.8719 24.1894 21.4125 24.5764 21.2903 24.6793C21.1027 24.8373 20.9667 24.9562 20.9099 25.0061C20.844 25.0639 20.8028 25.1008 20.794 25.1087C20.7791 25.1221 20.8115 25.0931 20.9059 25.0065C20.9947 24.9249 21.1136 24.815 21.2648 24.6743C21.8872 24.0953 22.8229 23.213 23.9586 22.1308L68.1088 68.4639C66.8751 69.6395 65.7368 70.7144 64.8553 71.5344C64.4339 71.9264 63.9638 72.3603 63.5322 72.7474C63.3471 72.9135 62.9694 73.2509 62.5241 73.626C62.3401 73.781 61.8311 74.2082 61.1672 74.7117C60.8648 74.9409 60.1534 75.4742 59.2064 76.0875C58.7348 76.393 57.8929 76.9219 56.7981 77.5027C56.0076 77.922 53.5833 79.1896 50.224 80.1067L33.3696 18.3658ZM23.8937 22.1928C26.7514 19.4544 26.5697 19.603 26.0973 20.1212C25.859 20.3825 24.8722 21.464 23.7616 23.0561C22.9103 24.2766 20.0071 28.5129 18.7302 34.8692C17.0442 43.262 18.9364 51.0718 22.3373 56.9908C23.6386 59.2557 24.9299 60.8372 25.3671 61.3669C25.3804 61.383 26.4809 62.6837 25.6052 61.6524L74.3897 20.227C72.6374 18.1633 75.887 21.7257 77.8297 25.1068C81.2714 31.0969 83.1825 38.9825 81.4766 47.4742C80.1799 53.9292 77.2182 58.2874 76.2529 59.6713C75.0284 61.4267 73.8722 62.713 73.3926 63.2391C71.9546 64.8164 69.6545 66.983 68.1736 68.402L23.8937 22.1928ZM25.8814 61.9735C27.2511 63.5438 28.4839 64.6424 29.1039 65.1765C29.8133 65.7875 30.4191 66.2545 30.8148 66.5504C31.592 67.1315 32.2294 67.5513 32.5417 67.7536C33.1922 68.1751 33.7011 68.4688 33.8675 68.5645C34.0955 68.6956 34.2654 68.7888 34.3457 68.8325C34.4356 68.8814 34.4957 68.9131 34.5187 68.9252C34.569 68.9517 34.4552 68.8918 34.2292 68.7824L62.1195 11.1792C62.8337 11.5249 63.5996 11.9081 64.3105 12.2821C64.6326 12.4515 65.1689 12.7371 65.7684 13.0818C66.0353 13.2352 66.6259 13.5782 67.3371 14.0389C67.6798 14.2608 68.3422 14.6979 69.1388 15.2935C69.4791 15.5479 71.7692 17.2182 74.1134 19.906L25.8814 61.9735ZM34.1305 68.7344L32.4281 67.9029L60.5158 10.3957L62.2182 11.2272L34.1305 68.7344ZM16.7813 51.085L15.7077 48.4146L75.0892 24.5432L76.1627 27.2136L16.7813 51.085ZM15.71 48.4201C15.4767 47.8401 15.2901 47.3925 15.1946 47.1695C15.1324 47.0243 15.1783 47.1365 15.2963 47.392C15.333 47.4715 15.5414 47.9246 15.8515 48.5233C15.982 48.7753 16.3643 49.509 16.9203 50.4206C17.1864 50.8568 17.7471 51.7558 18.5479 52.833C18.956 53.3821 19.6084 54.2239 20.4821 55.191C21.2531 56.0444 22.8275 57.7042 25.1365 59.4201L63.3102 8.05113C67.2734 10.9963 69.5739 14.198 69.9122 14.6531C70.7183 15.7376 71.2853 16.646 71.5586 17.094C72.1289 18.029 72.5289 18.795 72.6805 19.0876C73.0327 19.7675 73.2962 20.3353 73.3997 20.5593C73.6511 21.1036 73.8764 21.6236 74.027 21.9753C74.3571 22.7461 74.7295 23.6489 75.087 24.5377L15.71 48.4201ZM24.7905 59.1593C26.583 60.5294 28.1266 61.3953 28.4813 61.5957C29.0932 61.9414 29.5913 62.1958 29.8571 62.3293C30.3987 62.6012 30.8292 62.7976 30.9982 62.8742C31.3789 63.0467 31.6748 63.1714 31.754 63.2047C31.8761 63.2562 31.9685 63.2941 32.0109 63.3114C32.0591 63.3311 32.0928 63.3448 32.1064 63.3502C32.1369 63.3625 32.0935 63.345 31.93 63.2808C31.6284 63.1624 31.156 62.9788 30.5376 62.7395C29.3151 62.2665 27.6708 61.634 26.0117 60.9979C24.3527 60.362 22.7098 59.7343 21.4906 59.2711C20.8739 59.0368 20.4027 58.8587 20.1026 58.7463C19.939 58.685 19.8975 58.6699 19.9306 58.682C19.9451 58.6873 19.9811 58.7004 20.0325 58.7188C20.0768 58.7347 20.1778 58.7708 20.3123 58.8174C20.3863 58.843 20.7419 58.9665 21.2073 59.1119C21.3847 59.1673 22.0041 59.3607 22.8105 59.5669C23.1641 59.6574 24.0897 59.8901 25.2913 60.0977C25.9189 60.1997 27.4944 60.3998 28.4432 60.4823C30.0003 60.5562 34.4873 60.3442 37.3838 59.8669L24.0915 -2.73753C26.9883 -3.2149 31.4756 -3.42684 33.0331 -3.35293C33.9823 -3.27046 35.5584 -3.07022 36.1866 -2.96812C37.3895 -2.7603 38.3168 -2.52726 38.6724 -2.43628C39.4829 -2.22894 40.108 -2.03389 40.2927 -1.9762C40.7726 -1.82625 41.1491 -1.69579 41.2499 -1.66087C41.533 -1.56288 41.7716 -1.47597 41.8644 -1.4421C42.0992 -1.35645 42.3501 -1.26287 42.5567 -1.18546C42.9971 -1.02048 43.5777 -0.800774 44.2204 -0.55658C45.5203 -0.062748 47.2273 0.589455 48.9208 1.23864C50.6139 1.88773 52.3244 2.54568 53.6305 3.05097C54.2763 3.30083 54.8617 3.52825 55.3077 3.70324C55.518 3.78576 55.7709 3.88548 56.0072 3.98058C56.1051 4.02002 56.3327 4.11183 56.5988 4.22393C56.706 4.2691 57.0239 4.40324 57.4203 4.5829C57.5971 4.66306 58.034 4.86239 58.5802 5.13672C58.8484 5.2714 59.3484 5.52679 59.9619 5.87337C60.3182 6.07467 61.8629 6.94121 63.6562 8.31191L24.7905 59.1593ZM30.7377 60.5647C33.0035 60.5647 34.7728 60.3192 35.5687 60.1974C36.5156 60.0525 37.2776 59.8919 37.7544 59.7844C38.6961 59.5721 39.4269 59.3614 39.7831 59.2558C40.5356 59.0326 41.1152 58.8294 41.4041 58.7258L19.8171 -1.52365C20.1569 -1.64537 20.7905 -1.86684 21.589 -2.10363C21.9683 -2.21608 22.7201 -2.43248 23.6794 -2.64875C23.9674 -2.71366 26.9308 -3.43531 30.7377 -3.43531V60.5647ZM48.6448 2.17675C50.4149 2.85136 52.0474 3.48026 53.2655 3.95461C53.8639 4.18762 54.418 4.40503 54.8575 4.58031C55.0564 4.65966 55.3479 4.77657 55.645 4.89996C55.7577 4.94675 56.0956 5.08723 56.5035 5.2691C56.6536 5.33607 57.1923 5.57621 57.8615 5.91245C58.1368 6.05073 58.9578 6.46532 59.9658 7.07012C60.4376 7.35314 61.477 7.99011 62.7145 8.91898C63.0094 9.14035 67.2277 12.1163 70.6052 17.4945L16.4059 51.5304C18.4106 54.7227 20.5297 56.8265 21.5065 57.7512C22.6577 58.8409 23.6683 59.634 24.2947 60.1041C25.5312 61.0323 26.5693 61.6684 27.0394 61.9504C28.0441 62.5532 28.8605 62.9653 29.1297 63.1006C29.787 63.4308 30.3083 63.6629 30.436 63.7198C30.7988 63.8817 31.0711 63.9941 31.0983 64.0054C31.2245 64.0579 31.2662 64.0738 31.1452 64.0255C30.9446 63.9455 30.5777 63.801 30.0422 63.5925C28.9926 63.1838 27.5062 62.611 25.8525 61.9807L48.6448 2.17675ZM70.6052 17.4945C71.397 18.7555 71.9251 19.8029 72.0164 19.9819C72.2105 20.3628 72.357 20.6693 72.4319 20.8276C72.5862 21.1536 72.7021 21.4129 72.7481 21.5163C72.8525 21.7508 72.934 21.9414 72.9643 22.0124C73.038 22.1851 73.1042 22.3437 73.1429 22.437C73.2302 22.6468 73.3317 22.8936 73.4319 23.1383C73.6381 23.6419 73.9056 24.2996 74.1881 24.9983L14.8556 48.9912C14.5982 48.3547 14.367 47.7864 14.2048 47.3902C14.1208 47.1851 14.0707 47.0636 14.0499 47.0137C14.0347 46.9772 14.0578 47.0331 14.1008 47.1338C14.1157 47.1687 14.1848 47.3309 14.2802 47.545C14.3217 47.6383 14.4338 47.8894 14.5852 48.2093C14.6587 48.3646 14.804 48.6686 14.9971 49.0475C15.0956 49.2407 15.2466 49.5321 15.4386 49.8828C15.6078 50.1917 15.9435 50.7941 16.4059 51.5304L70.6052 17.4945ZM74.2131 25.0604L75.1914 27.4942L15.8088 51.3628L14.8306 48.9291L74.2131 25.0604ZM67.5804 62.5901L64.741 65.297L20.5804 18.9737L23.4198 16.2668L67.5804 62.5901ZM64.7927 65.2475L61.9597 67.9604L17.6956 21.7361L20.5287 19.0232L64.7927 65.2475ZM28.8045 74.8897L26.2573 73.9551L48.3036 13.8721L50.8508 14.8068L28.8045 74.8897ZM26.1985 73.9335C25.4704 73.6647 24.7865 73.4108 24.2648 73.2158C24.0106 73.1208 23.7586 73.0261 23.5469 72.9458C23.4522 72.9098 23.2967 72.8506 23.1293 72.7854C23.0603 72.7585 22.8778 72.6873 22.6536 72.5962C22.555 72.5561 22.3072 72.455 21.9954 72.3203C21.8442 72.255 21.5501 72.1267 21.1839 71.9563C21.0169 71.8785 19.9997 71.4107 18.7674 70.7043L50.5973 15.1808C49.8762 14.7674 49.2891 14.4688 48.9915 14.32C48.6523 14.1505 48.3711 14.0175 48.1855 13.9311C47.8213 13.7617 47.5299 13.6346 47.3819 13.5706C47.0765 13.4386 46.8372 13.3411 46.7492 13.3054C46.5464 13.2229 46.3936 13.1635 46.3624 13.1513C46.2704 13.1154 46.2224 13.0974 46.2635 13.113C46.3235 13.1358 46.457 13.1861 46.6737 13.2671C47.0937 13.4241 47.693 13.6467 48.3623 13.8937L26.1985 73.9335ZM18.7674 70.7043C13.3264 67.5851 10.2172 63.575 9.91005 63.1994C8.90615 61.9719 8.21118 60.9322 7.89679 60.4513C7.2292 59.4303 6.76859 58.5942 6.61276 58.3098C6.23659 57.6233 5.96699 57.0694 5.89144 56.9142C5.68708 56.4944 5.52932 56.1468 5.47773 56.0331C5.34097 55.7317 5.21247 55.4384 5.12774 55.2441C4.93947 54.8123 4.70719 54.2708 4.46059 53.692C3.95776 52.5117 3.29165 50.9323 2.57772 49.2238L61.6291 24.5472C62.2999 26.1525 62.9074 27.5925 63.3399 28.6077C63.561 29.1266 63.7118 29.477 63.7938 29.6648C63.8441 29.7803 63.8224 29.7288 63.7607 29.5928C63.7467 29.5618 63.6185 29.2779 63.4353 28.9017C63.3704 28.7683 63.1093 28.231 62.7395 27.5561C62.5868 27.2775 62.1288 26.446 61.4633 25.4281C61.15 24.9489 60.4559 23.9104 59.4528 22.6838C58.9433 22.0608 58.0985 21.074 56.9504 19.9614C55.9572 18.999 53.7994 17.0164 50.5973 15.1808L18.7674 70.7043ZM2.59021 49.2537L0.062048 43.2209L59.0884 18.4846L61.6166 24.5173L2.59021 49.2537ZM8.01178 7.20922L8.15152 7.08177L51.2785 54.3688L51.1387 54.4963L8.01178 7.20922ZM7.0769 8.10857L7.21029 7.97505L52.4865 53.2085L52.3531 53.342L7.0769 8.10857ZM51.9545 7.45486L55.2323 10.5865L11.0199 56.8604L7.74222 53.7287L51.9545 7.45486ZM55.2323 10.5865L58.51 13.7182L14.2976 59.9921L11.0199 56.8604L55.2323 10.5865ZM63.908 53.2112L63.7492 53.4782L8.7408 20.7662L8.8996 20.4992L63.908 53.2112ZM63.5687 53.778C66.2466 49.3849 67.2524 45.2365 67.6372 42.3247C68.0266 39.3789 68.1101 35.2017 66.7355 30.4011L5.2082 48.0189C3.64938 42.575 3.70118 37.6301 4.18896 33.9393C4.67225 30.2824 5.90675 25.4118 8.92132 20.4664L63.5687 53.778ZM66.8081 30.6587C62.6978 15.8366 48.2814 7.43038 34.1741 9.73445L44.4902 72.8976C27.4101 75.6872 10.0336 65.4237 5.13559 47.7613L66.8081 30.6587ZM34.0291 9.75847C22.7992 11.6456 12.6862 20.3726 10.3319 33.1619L73.2744 44.7483C70.4755 59.9531 58.3932 70.5616 44.6352 72.8735L34.0291 9.75847ZM10.3033 33.3194C7.31448 50.0252 18.5688 63.4142 31.7205 66.7579L47.4901 4.73113C63.6019 8.82738 76.8 25.0446 73.303 44.5908L10.3033 33.3194ZM31.5834 66.7227C35.8436 67.8259 39.5388 67.7834 42.2358 67.4639C44.8436 67.155 48.8379 66.3138 53.1966 63.8426L21.631 8.16839C29.9587 3.44686 39.5074 2.66365 47.6272 4.76631L31.5834 66.7227ZM52.6811 64.1286L52.4016 64.2803L21.8671 8.03407L22.1465 7.88234L52.6811 64.1286ZM15.0281 59.2941L11.7568 56.1685L55.9691 9.89466L59.2405 13.0203L15.0281 59.2941ZM11.7568 56.1685L8.47907 53.0368L52.6914 6.76297L55.9691 9.89466L11.7568 56.1685ZM7.34983 7.89726L7.47053 7.76981L53.9413 51.7751L53.8206 51.9025L7.34983 7.89726ZM7.61471 7.61853C10.3712 4.74546 13.7016 2.33584 17.4821 0.602047C20.2947 -0.68787 27.851 -3.69744 37.5744 -1.63294L24.2821 60.9715C29.5413 62.0881 33.9822 61.6501 36.8217 61.1134C39.8035 60.5499 42.274 59.6417 44.1616 58.7759C47.8627 57.0786 51.1106 54.7266 53.7971 51.9264L7.61471 7.61853ZM38.3627 -1.45514C39.3503 -1.21923 40.1102 -0.985744 40.2932 -0.929741C40.6011 -0.835522 40.8455 -0.755608 40.9781 -0.711773C41.2473 -0.622738 41.4582 -0.548962 41.5462 -0.518074C41.7415 -0.449474 41.8975 -0.392529 41.955 -0.37151C42.094 -0.320698 42.2182 -0.274349 42.2853 -0.249245C42.4385 -0.191948 42.6171 -0.124485 42.7919 -0.0582581C43.1535 0.0787392 43.6478 0.266846 44.2267 0.487652C45.3915 0.93187 46.9737 1.53688 48.691 2.19442L25.8063 61.963C24.0998 61.3096 22.5472 60.716 21.4204 60.2863C20.8536 60.0701 20.4129 59.9024 20.1197 59.7913C19.9671 59.7335 19.8882 59.7038 19.8627 59.6943C19.8404 59.686 19.8949 59.7064 19.985 59.7394C20.018 59.7514 20.1548 59.8014 20.3361 59.8651C20.417 59.8936 20.6223 59.9654 20.8873 60.053C21.0177 60.0961 21.2602 60.1755 21.5667 60.2692C21.7235 60.3172 21.9516 60.3857 22.2283 60.4639C22.4805 60.5352 22.9289 60.6588 23.4938 60.7937L38.3627 -1.45514ZM49.5143 6.32547C55.4408 8.27196 59.4746 11.4588 61.535 13.3063C63.6692 15.2199 67.0409 18.7138 69.55 23.9879L11.7568 51.4825C14.0754 56.356 17.0881 59.4129 18.8094 60.9563C20.457 62.4336 24.0239 65.317 29.5439 67.13L49.5143 6.32547ZM69.7584 24.4348C72.1769 29.7271 72.773 34.6826 72.8038 38.2208C72.8337 41.6453 72.3646 47.0161 69.642 52.8257L11.6902 25.6672C9.15817 31.0701 8.78117 35.9008 8.80628 38.779C8.83238 41.771 9.32687 46.1742 11.5484 51.0355L69.7584 24.4348ZM69.5627 52.9937C66.1155 60.2396 60.2745 65.882 53.3274 69.1498L26.0865 11.2366C19.9651 14.116 14.8356 19.0544 11.7695 25.4992L69.5627 52.9937ZM53.2032 69.2079C44.4911 73.2604 34.3247 73.435 25.4461 69.6285L50.6647 10.8065C46.1242 8.85989 41.8339 8.31911 38.3848 8.37313C34.9414 8.42707 30.6798 9.09969 26.2107 11.1785L53.2032 69.2079ZM25.3082 69.569C20.196 67.3488 16.6627 64.2876 14.5939 62.1813C12.7122 60.2656 9.12869 56.1977 6.89039 49.9764L67.1114 28.3101C65.9362 25.0435 64.4551 22.6457 63.4555 21.2053C62.3774 19.6517 61.2722 18.3721 60.2528 17.3342C58.5715 15.6224 55.4955 12.9041 50.8026 10.866L25.3082 69.569ZM6.78687 49.6842C5.35779 45.588 4.99941 41.9721 4.92096 39.6153C4.84347 37.2871 4.94879 33.5251 6.19184 29.1703L67.7338 46.7371C68.8815 42.7161 68.9487 39.385 68.8855 37.4862C68.8214 35.5587 68.5297 32.3708 67.215 28.6023L6.78687 49.6842ZM6.24623 28.9819C8.34882 21.7833 12.3887 16.9316 15.1683 14.2315C17.9879 11.4924 22.8702 7.70476 29.9238 5.80188L46.5934 67.5929C53.1071 65.8356 57.4177 62.4152 59.7625 60.1374C62.0673 57.8985 65.7292 53.6021 67.6794 46.9254L6.24623 28.9819ZM29.4414 5.93609C34.1665 4.5817 38.1539 4.6104 39.7093 4.65016C41.4006 4.6934 45.0133 4.89062 49.2399 6.23674L29.8182 67.2187C32.082 67.9397 33.9368 68.2411 34.9533 68.3784C36.1077 68.5344 37.1533 68.6057 38.0737 68.6293C38.9885 68.6526 40.0831 68.6366 41.3272 68.5281C42.3992 68.4345 44.4971 68.1978 47.0759 67.4586L29.4414 5.93609ZM61.4919 11.9986C61.911 12.1988 62.3506 12.4136 62.759 12.6193C62.9415 12.7113 63.2552 12.8705 63.6122 13.0606C63.7631 13.1409 64.1399 13.3424 64.6024 13.6087C64.8139 13.7305 65.2937 14.0091 65.886 14.3877C66.1804 14.5758 66.697 14.9122 67.3213 15.3604C67.75 15.6681 69.1622 16.6857 70.7696 18.2216L26.5573 64.4954C27.4586 65.3565 28.2377 65.9992 28.7205 66.384C29.2365 66.7951 29.68 67.1222 29.9985 67.3509C30.6197 67.7968 31.1324 68.1306 31.422 68.3157C32.005 68.6883 32.4724 68.9595 32.6687 69.0725C33.1007 69.3213 33.4356 69.4998 33.5345 69.5525C33.7875 69.6872 33.9567 69.772 33.9645 69.776C34.0235 69.8057 33.9931 69.7898 33.904 69.7473L61.4919 11.9986ZM70.7696 18.2216C78.7147 25.8127 80.4929 34.9927 80.6504 40.4336C80.7982 45.5411 79.6775 49.4552 79.1111 51.2068C77.944 54.816 76.3867 57.3627 75.977 58.0341C74.8639 59.858 73.8038 61.1644 73.5875 61.4334C72.8897 62.3011 72.2885 62.9521 72.157 63.0951C71.7375 63.5512 71.3662 63.9292 71.2214 64.0765C70.8489 64.4551 70.4399 64.8589 70.0912 65.2007C69.3517 65.9256 68.3965 66.8478 67.3903 67.8092L23.178 21.5353C24.0583 20.6942 24.8055 19.9716 25.2904 19.4964C25.5539 19.2381 25.6376 19.1529 25.6016 19.1896C25.5838 19.2077 25.5329 19.2595 25.4592 19.3361C25.3973 19.4004 25.2464 19.5579 25.0489 19.7728C24.9602 19.8692 24.3908 20.484 23.7134 21.3264C23.5072 21.5828 22.4544 22.8792 21.3458 24.6959C20.9382 25.3638 19.3824 27.9076 18.216 31.5146C17.6499 33.2651 16.5294 37.1783 16.6772 42.2851C16.8346 47.7252 18.6126 56.9047 26.5573 64.4954L70.7696 18.2216ZM67.3903 67.8092C66.4054 68.7502 65.4855 69.6228 64.7874 70.2796C64.4488 70.5982 64.1095 70.9159 63.8228 71.1806C63.7008 71.2932 63.4718 71.5041 63.2172 71.7313C63.1327 71.8068 62.7962 72.1075 62.3662 72.4666C62.2359 72.5754 61.5885 73.1187 60.7226 73.7515C60.4462 73.9535 59.155 74.9047 57.3702 75.8957C56.6899 76.2734 54.2672 77.6157 50.886 78.6127C49.2418 79.0976 45.661 80.0278 41.0158 79.9088C36.3247 79.7887 27.4648 78.4476 19.7287 71.0562L63.9411 24.7823C56.2051 17.391 47.3453 16.05 42.6545 15.9298C38.0094 15.8108 34.4289 16.7411 32.785 17.2258C29.4043 18.2227 26.9824 19.5646 26.3031 19.9418C24.5201 20.9318 23.2316 21.8811 22.9586 22.0807C22.0994 22.7086 21.4617 23.2441 21.344 23.3425C20.9391 23.6806 20.6392 23.9494 20.6021 23.9825C20.4423 24.125 20.3517 24.2096 20.4068 24.1587C20.4743 24.0965 20.6439 23.9384 20.9309 23.6684C21.4843 23.1477 22.2826 22.3908 23.178 21.5353L67.3903 67.8092ZM19.7287 71.0562C17.2491 68.687 15.6921 66.3738 15.6726 66.346C15.2289 65.7164 14.903 65.2045 14.7575 64.9736C14.4451 64.478 14.2133 64.0793 14.1326 63.9402C13.9387 63.6057 13.7867 63.3297 13.7343 63.2345C13.6019 62.9937 13.4787 62.7636 13.4075 62.6303C13.2487 62.333 13.0547 61.9659 12.8917 61.6572L69.4823 31.7658C69.6623 32.1065 69.7827 32.3341 69.8574 32.4739C69.9029 32.5591 69.8761 32.508 69.8134 32.3939C69.7958 32.362 69.672 32.1362 69.4987 31.8373C69.4283 31.716 69.205 31.3314 68.899 30.846C68.7567 30.6203 68.4335 30.1125 67.9921 29.486C67.7702 29.1711 67.3907 28.6439 66.8895 28.013C66.5017 27.5248 65.4651 26.2385 63.9411 24.7823L19.7287 71.0562ZM12.8346 61.5487L12.2185 60.3713L68.9232 30.6969L69.5394 31.8743L12.8346 61.5487ZM18.4647 22.3971L21.2787 19.7085L65.491 65.9824L62.677 68.671L18.4647 22.3971ZM21.2787 19.7085L24.0863 17.0259L68.2987 63.2998L65.491 65.9824L21.2787 19.7085ZM59.4922 11.0576L59.7844 11.1911L33.1849 69.4017L32.8927 69.2681L59.4922 11.0576ZM59.8244 11.2094C60.2823 11.4194 61.1821 11.8506 61.4919 11.9986L33.904 69.7473C33.644 69.6231 33.4024 69.5077 33.2069 69.4146C33.109 69.368 33.041 69.3358 32.9993 69.316C32.9786 69.3063 32.9766 69.3053 32.9881 69.3107C32.9897 69.3115 33.0518 69.3406 33.1449 69.3833L59.8244 11.2094Z" fill="#7C919E" mask="url(#path-3-inside-1_323_440)"/>
</svg>
