<svg width="68" height="68" viewBox="0 0 68 68" fill="none" xmlns="http://www.w3.org/2000/svg">
<rect width="67.5904" height="68" rx="10" fill="#ECF0F3"/>
<path d="M45.241 16.1372C44.991 16.2897 44.9 16.5184 44.4681 18.1727C44.0968 19.5908 44.0589 19.911 44.2635 20.1778C44.5363 20.5361 45.2865 20.498 45.4911 20.1244C45.6578 19.8042 46.4004 16.7623 46.355 16.5794C46.2944 16.3125 45.9079 16 45.6578 16C45.5441 16 45.3623 16.0609 45.241 16.1372Z" fill="#7C919E"/>
<path d="M35.5568 17.7534C35.1248 17.8297 34.6626 18.0584 34.3822 18.3481C34.261 18.4701 31.9042 21.4662 29.1383 25.0036L24.1142 31.4457L21.1058 33.1916C19.4538 34.1446 17.817 35.1128 17.476 35.3415C16.3696 36.0658 15.6422 37.0416 15.2481 38.3376C15.0966 38.8103 15.0662 39.0695 15.0738 39.8624C15.0738 40.6934 15.1041 40.8916 15.286 41.4253C16.0514 43.6895 18.0216 45.1228 20.3556 45.1228C20.9012 45.1228 21.2952 45.0542 22.2122 44.8026C22.2652 44.7874 23.0609 46.091 24.2355 48.1342C26.3724 51.8546 26.6225 52.2053 27.4409 52.6094C27.9183 52.8457 27.9941 52.861 28.7443 52.861C29.449 52.861 29.593 52.8381 29.9719 52.6551C30.4872 52.4188 31.0858 51.8699 31.3586 51.4124C31.7982 50.6501 31.8815 49.6285 31.5632 48.8127C31.4799 48.6069 30.9115 47.5624 30.2977 46.4951C29.6839 45.4278 29.1686 44.5205 29.1459 44.4672C29.1308 44.4214 29.5778 44.1165 30.1462 43.7887C30.7069 43.4685 31.2222 43.1254 31.2829 43.0415C31.5026 42.7213 31.4268 42.3783 30.904 41.4634C30.4266 40.6248 30.3584 40.4723 30.4569 40.4723C30.4796 40.4723 33.1849 39.9386 36.4661 39.2982C39.7398 38.6502 43.1271 37.9793 43.9985 37.8116C44.8624 37.6363 45.6656 37.4533 45.7793 37.3923C46.1279 37.2093 46.6356 36.668 46.7947 36.3021C46.9842 35.8675 47.0524 35.1966 46.9387 34.785C46.8933 34.6096 46.3552 33.5957 45.749 32.5359C45.1428 31.4686 44.5441 30.4242 44.4229 30.2031L44.1955 29.8143L45.0291 28.5563C45.4838 27.8626 45.8778 27.1917 45.9081 27.0697C45.9612 26.7952 45.9536 26.78 44.9836 25.0951C44.5896 24.409 44.1728 23.7838 44.0667 23.6924C43.8773 23.5399 43.8015 23.5323 43.1043 23.578C42.6875 23.6009 41.9752 23.639 41.513 23.6695L40.6794 23.7152L39.2775 21.2527C38.5046 19.8957 37.7468 18.6378 37.5801 18.4624C37.0799 17.9059 36.2918 17.6314 35.5568 17.7534ZM36.3828 19.4154C36.5874 19.5679 45.408 34.9146 45.4686 35.2271C45.5596 35.6998 45.1958 36.081 44.5896 36.142L44.3395 36.1649L39.6867 28.0608C36.1024 21.8169 35.0491 19.9262 35.1021 19.8271C35.193 19.6594 35.5719 19.3087 35.7159 19.2553C35.8826 19.1943 36.1782 19.2629 36.3828 19.4154ZM38.4288 28.9223C40.8082 33.0696 42.7482 36.4698 42.7406 36.4851C42.7027 36.5156 29.5551 39.1076 29.54 39.0848C29.396 38.8942 25.5616 32.1166 25.5767 32.0785C25.6449 31.8803 34.0033 21.2604 34.0488 21.3137C34.0791 21.3442 36.0493 24.7673 38.4288 28.9223ZM43.7636 26.0176L44.2865 26.9248L43.847 27.5957C43.6045 27.9693 43.3771 28.2666 43.3468 28.2514C43.3165 28.2438 42.8997 27.5576 42.4223 26.7266C41.4372 25.0189 41.4372 25.1714 42.4602 25.1256C42.7709 25.1104 43.074 25.1028 43.1346 25.1028C43.1877 25.1104 43.4756 25.5144 43.7636 26.0176ZM26.2739 36.4317C27.2969 38.208 28.1229 39.6718 28.1153 39.6794C28.0698 39.7252 22.2804 43.072 22.0303 43.2016C19.8251 44.3299 17.1047 42.9653 16.6197 40.4876C16.3621 39.1915 16.9304 37.6591 17.9534 36.8586C18.4839 36.4546 24.2961 33.0772 24.3643 33.1382C24.387 33.1687 25.2509 34.6477 26.2739 36.4317ZM29.305 41.715L29.646 42.302L29.4793 42.4087C28.5169 43.0034 28.3502 43.0796 28.282 42.9805C28.0926 42.6985 27.5924 41.7531 27.6152 41.7379C27.8046 41.5854 28.8731 41.0288 28.9034 41.067C28.9337 41.0975 29.1156 41.3872 29.305 41.715ZM28.2138 45.9004C30.2599 49.476 30.3659 49.72 30.1992 50.2994C29.8658 51.3896 28.4336 51.7555 27.6606 50.9321C27.4939 50.7492 23.8111 44.4138 23.7126 44.1317C23.6823 44.0479 24.0384 43.8039 24.9402 43.2779C25.6374 42.8738 26.2209 42.5384 26.2436 42.5384C26.2663 42.5384 27.1529 44.0479 28.2138 45.9004Z" fill="#7C919E"/>
<path d="M24.6293 38.1928C24.4096 38.3224 24.258 38.7112 24.3035 38.9933C24.3944 39.4507 24.9855 39.7099 25.4174 39.4812C25.8191 39.2601 25.8797 38.5587 25.5084 38.2614C25.2962 38.0937 24.8567 38.0632 24.6293 38.1928Z" fill="#7C919E"/>
<path d="M21.8863 39.7937C21.7196 39.8852 21.3786 40.0758 21.1361 40.2207C20.8936 40.3655 20.5905 40.5028 20.4768 40.5256C20.1964 40.579 19.8403 40.4341 19.6887 40.1902C19.5296 39.9538 19.1052 39.7709 18.8551 39.8319C18.3853 39.9462 18.1428 40.6019 18.4156 41.0059C18.9385 41.7988 19.7948 42.18 20.7269 42.0428C21.1361 41.9818 22.6365 41.166 22.932 40.8458C23.22 40.5332 23.2124 40.1597 22.9169 39.8547C22.6441 39.5803 22.3182 39.565 21.8863 39.7937Z" fill="#7C919E"/>
<path d="M50.7198 20.4447C48.1736 21.8703 48.2418 21.8246 48.1509 22.1524C48.0145 22.648 48.3252 23.0901 48.8102 23.0901C49.2118 23.0901 53.4781 20.7268 53.6903 20.3837C53.9934 19.8958 53.6524 19.2783 53.0841 19.2783C52.8643 19.2783 52.349 19.5298 50.7198 20.4447Z" fill="#7C919E"/>
<path d="M48.636 26.6275C48.2874 26.9782 48.3102 27.4813 48.6815 27.7558C48.7876 27.832 49.5681 28.0913 50.4168 28.32C51.652 28.6554 52.0233 28.724 52.2279 28.6783C52.766 28.5487 52.9857 27.8473 52.6068 27.4661C52.4477 27.3136 52.0839 27.184 50.8791 26.8562C49.1362 26.3911 48.9012 26.3607 48.636 26.6275Z" fill="#7C919E"/>
</svg>
