<svg width="68" height="68" viewBox="0 0 68 68" fill="none" xmlns="http://www.w3.org/2000/svg">
<rect width="68" height="68" rx="10" fill="#ECF0F3"/>
<path d="M49.7719 17H17.2281C16.9024 17 16.59 17.1294 16.3597 17.3597C16.1294 17.59 16 17.9024 16 18.2281V50.7719C16 51.0976 16.1294 51.41 16.3597 51.6403C16.59 51.8706 16.9024 52 17.2281 52H49.7719C50.0976 52 50.41 51.8706 50.6403 51.6403C50.8706 51.41 51 51.0976 51 50.7719V18.2281C51 17.9024 50.8706 17.59 50.6403 17.3597C50.41 17.1294 50.0976 17 49.7719 17ZM49.7719 18.2281V22.6289H17.2281V18.2281H49.7719ZM17.2281 50.7719V23.8569H49.7719V50.7719H17.2281Z" fill="#7C919E"/>
<path d="M23.3685 19.1773C23.1202 19.1728 22.8762 19.2423 22.6675 19.377C22.4588 19.5117 22.295 19.7054 22.1968 19.9335C22.0987 20.1616 22.0706 20.4138 22.1163 20.6579C22.162 20.902 22.2793 21.127 22.4533 21.3042C22.6272 21.4814 22.85 21.6028 23.0933 21.653C23.3365 21.7031 23.5891 21.6797 23.819 21.5857C24.0489 21.4917 24.2456 21.3315 24.3841 21.1253C24.5225 20.9192 24.5965 20.6765 24.5966 20.4281C24.5981 20.2653 24.5675 20.1039 24.5066 19.9529C24.4458 19.8019 24.3557 19.6644 24.2417 19.5483C24.1276 19.4321 23.9918 19.3396 23.842 19.2759C23.6922 19.2123 23.5313 19.1788 23.3685 19.1773Z" fill="#7C919E"/>
<path d="M19.6842 19.1773C19.4359 19.1728 19.1918 19.2423 18.9832 19.377C18.7745 19.5117 18.6107 19.7054 18.5125 19.9335C18.4143 20.1616 18.3863 20.4138 18.432 20.6579C18.4776 20.902 18.5949 21.127 18.7689 21.3042C18.9429 21.4814 19.1657 21.6028 19.4089 21.653C19.6522 21.7031 19.9048 21.6797 20.1347 21.5857C20.3646 21.4917 20.5613 21.3315 20.6997 21.1253C20.8382 20.9192 20.9122 20.6765 20.9122 20.4281C20.9138 20.2653 20.8832 20.1039 20.8223 19.9529C20.7614 19.8019 20.6714 19.6644 20.5573 19.5483C20.4433 19.4321 20.3075 19.3396 20.1577 19.2759C20.0078 19.2123 19.8469 19.1788 19.6842 19.1773Z" fill="#7C919E"/>
<path d="M27.0526 19.1773C26.8043 19.1728 26.5602 19.2423 26.3516 19.377C26.1429 19.5117 25.9791 19.7054 25.8809 19.9335C25.7827 20.1616 25.7547 20.4138 25.8004 20.6579C25.846 20.902 25.9633 21.127 26.1373 21.3042C26.3113 21.4814 26.5341 21.6028 26.7773 21.653C27.0206 21.7031 27.2732 21.6797 27.5031 21.5857C27.733 21.4917 27.9297 21.3315 28.0682 21.1253C28.2066 20.9192 28.2806 20.6765 28.2806 20.4281C28.2822 20.2653 28.2516 20.1039 28.1907 19.9529C28.1298 19.8019 28.0398 19.6644 27.9257 19.5483C27.8117 19.4321 27.6759 19.3396 27.5261 19.2759C27.3762 19.2123 27.2153 19.1788 27.0526 19.1773Z" fill="#7C919E"/>
<path d="M40.3594 31.4913C39.7798 30.8381 39.0652 30.3187 38.2649 29.9691C37.7211 29.745 37.142 29.6186 36.5542 29.5957C35.9306 29.4984 35.2929 29.6325 34.7612 29.9728C34.5867 30.1134 34.4309 30.2758 34.2977 30.456C34.2325 30.5441 34.1598 30.6263 34.0803 30.7016C34.0063 30.7798 33.9172 30.8423 33.8184 30.8852C33.7197 30.928 33.6133 30.9505 33.5056 30.9512C33.3979 30.9519 33.2912 30.9308 33.1919 30.8892C33.0926 30.8475 33.0027 30.7862 32.9277 30.709C32.8451 30.631 32.7697 30.5457 32.7024 30.4542C32.5715 30.2767 32.4186 30.1166 32.2474 29.9777C31.7153 29.634 31.0756 29.4974 30.4495 29.5939C29.8614 29.6163 29.2819 29.7423 28.7376 29.966C27.9363 30.3158 27.2207 30.8359 26.6406 31.49L25.0626 33.2339C24.9604 33.3468 24.9038 33.4936 24.9038 33.6459C24.9038 33.7982 24.9604 33.945 25.0626 34.0579L27.3099 36.5448C27.3675 36.6084 27.4377 36.6592 27.516 36.694C27.5944 36.7288 27.6792 36.7468 27.7649 36.7468C27.8505 36.7468 27.9352 36.7288 28.0134 36.6941C28.0917 36.6594 28.1618 36.6088 28.2193 36.5454L29.2018 35.4678V42.4862C29.2018 42.649 29.2665 42.8052 29.3816 42.9204C29.4968 43.0355 29.653 43.1002 29.8158 43.1002H37.1842C37.3471 43.1002 37.5033 43.0355 37.6184 42.9204C37.7336 42.8052 37.7983 42.649 37.7983 42.4862V35.4678L38.7807 36.5497C38.8382 36.6131 38.9084 36.6637 38.9866 36.6984C39.0649 36.7331 39.1495 36.751 39.2351 36.7511C39.3208 36.7511 39.4056 36.7331 39.484 36.6983C39.5624 36.6635 39.6326 36.6127 39.6901 36.5491L41.9375 34.0622C42.0397 33.9493 42.0962 33.8025 42.0962 33.6502C42.0962 33.4979 42.0397 33.3511 41.9375 33.2382L40.3594 31.4913ZM39.2339 35.2203L37.6374 33.4623C37.554 33.3706 37.4449 33.3063 37.3243 33.2778C37.2038 33.2493 37.0774 33.2579 36.9618 33.3025C36.8462 33.3472 36.7468 33.4257 36.6767 33.5279C36.6066 33.6301 36.569 33.751 36.569 33.875V41.8697H30.4298V33.8774C30.4298 33.7535 30.3922 33.6325 30.3221 33.5304C30.252 33.4282 30.1526 33.3496 30.037 33.305C29.9214 33.2603 29.7951 33.2517 29.6745 33.2802C29.5539 33.3088 29.4448 33.3731 29.3614 33.4648L27.7649 35.2228L26.3447 33.6502L27.55 32.319C28.0092 31.7974 28.5767 31.3823 29.2128 31.1026C29.6257 30.9341 30.0652 30.8401 30.5109 30.825C30.8436 30.7644 31.1869 30.8086 31.4934 30.9515C31.5862 31.0328 31.6696 31.1243 31.742 31.2242C31.8573 31.3762 31.9864 31.5172 32.1277 31.6454C32.5026 31.9918 32.9947 32.1835 33.5052 32.1822C34.0156 32.1808 34.5067 31.9864 34.8798 31.638C35.0177 31.5118 35.1439 31.3733 35.2568 31.2242C35.3314 31.1216 35.4175 31.0278 35.5134 30.9448C35.8195 30.8065 36.1602 30.7637 36.491 30.822C36.9363 30.8375 37.3754 30.9319 37.7878 31.1007C38.422 31.3805 38.9878 31.795 39.4457 32.3153L40.6511 33.6471L39.2339 35.2203Z" fill="#7C919E"/>
<path d="M47.8682 20.4282L48.3674 19.9203C48.4787 19.8035 48.5396 19.6476 48.5368 19.4863C48.5341 19.325 48.4679 19.1713 48.3527 19.0583C48.2375 18.9454 48.0825 18.8823 47.9212 18.8828C47.7598 18.8832 47.6052 18.9471 47.4906 19.0607L47.008 19.5519L46.5253 19.0607C46.4107 18.9471 46.2561 18.8832 46.0947 18.8828C45.9334 18.8823 45.7784 18.9454 45.6632 19.0583C45.548 19.1713 45.4818 19.325 45.4791 19.4863C45.4763 19.6476 45.5372 19.8035 45.6485 19.9203L46.1477 20.4282L45.6485 20.9366C45.5372 21.0534 45.4763 21.2093 45.4791 21.3706C45.4818 21.5319 45.548 21.6857 45.6632 21.7986C45.7784 21.9115 45.9334 21.9746 46.0947 21.9742C46.2561 21.9737 46.4107 21.9098 46.5253 21.7962L47.008 21.305L47.4906 21.7962C47.6052 21.9098 47.7598 21.9737 47.9212 21.9742C48.0825 21.9746 48.2375 21.9115 48.3527 21.7986C48.4679 21.6857 48.5341 21.5319 48.5368 21.3706C48.5396 21.2093 48.4787 21.0534 48.3674 20.9366L47.8682 20.4282Z" fill="#7C919E"/>
<path d="M41.1756 21.0422H43.6317C43.7946 21.0422 43.9507 20.9775 44.0659 20.8624C44.181 20.7472 44.2457 20.591 44.2457 20.4282C44.2457 20.2653 44.181 20.1091 44.0659 19.994C43.9507 19.8788 43.7946 19.8141 43.6317 19.8141H41.1756C41.0127 19.8141 40.8565 19.8788 40.7414 19.994C40.6262 20.1091 40.5615 20.2653 40.5615 20.4282C40.5615 20.591 40.6262 20.7472 40.7414 20.8624C40.8565 20.9775 41.0127 21.0422 41.1756 21.0422Z" fill="#7C919E"/>
<path d="M20.3099 35.6667L23.4599 32.9729C23.5837 32.867 23.6603 32.7163 23.673 32.554C23.6856 32.3916 23.6333 32.2309 23.5274 32.1071C23.4216 31.9833 23.2709 31.9067 23.1085 31.894C22.9462 31.8813 22.7854 31.9337 22.6616 32.0396L18.9774 35.1896C18.9109 35.2464 18.8573 35.3168 18.8202 35.3961C18.783 35.4753 18.7633 35.5616 18.7623 35.6491C18.7612 35.7366 18.7789 35.8233 18.8141 35.9035C18.8493 35.9836 18.9012 36.0553 18.9664 36.1137L22.6506 39.411C22.7722 39.5179 22.931 39.5724 23.0926 39.5627C23.2542 39.553 23.4054 39.48 23.5134 39.3594C23.6214 39.2388 23.6773 39.0804 23.6692 38.9188C23.661 38.7571 23.5893 38.6052 23.4697 38.4961L20.3099 35.6667Z" fill="#7C919E"/>
<path d="M44.3371 32.0377C44.2133 31.9319 44.0526 31.8795 43.8902 31.8922C43.7279 31.9048 43.5772 31.9815 43.4713 32.1053C43.3655 32.229 43.3131 32.3898 43.3258 32.5521C43.3384 32.7145 43.4151 32.8652 43.5389 32.9711L46.6889 35.6648L43.5278 38.4943C43.4669 38.5478 43.4172 38.6129 43.3815 38.6858C43.3459 38.7587 43.325 38.8379 43.3202 38.9188C43.3153 38.9998 43.3266 39.0809 43.3533 39.1575C43.3799 39.2341 43.4215 39.3047 43.4757 39.3651C43.5298 39.4256 43.5953 39.4747 43.6685 39.5096C43.7417 39.5446 43.8211 39.5647 43.9021 39.5688C43.9831 39.5729 44.0641 39.5609 44.1405 39.5335C44.2168 39.5061 44.287 39.4639 44.3469 39.4092L48.0311 36.1118C48.0963 36.0534 48.1482 35.9818 48.1834 35.9016C48.2186 35.8215 48.2363 35.7348 48.2353 35.6473C48.2342 35.5598 48.2145 35.4735 48.1774 35.3942C48.1403 35.315 48.0866 35.2446 48.0201 35.1877L44.3371 32.0377Z" fill="#7C919E"/>
</svg>
