<svg width="68" height="68" viewBox="0 0 68 68" fill="none" xmlns="http://www.w3.org/2000/svg">
<rect width="67.7939" height="68" rx="10" fill="#ECF0F3"/>
<path d="M16.368 18.0692C15.5941 18.2154 14.9639 18.7694 14.6146 19.6003L14.4365 20.0311V27.3016V34.572L14.6146 35.0029C14.8406 35.5337 15.2379 35.9953 15.7173 36.28C16.0735 36.4877 16.1146 36.4954 17.3749 36.5185L18.6694 36.5493L18.6215 37.134C18.5324 38.2034 18.2447 39.4344 17.8475 40.4422C17.642 40.9731 17.642 41.3347 17.8543 41.5732C18.1489 41.904 18.3132 41.8963 19.3612 41.504C21.9502 40.5423 23.1762 39.4805 24.916 36.7031C25.0256 36.5339 25.0256 36.5339 26.7516 36.5493L28.4776 36.5724L28.5119 41.227L28.5461 45.8816L28.779 46.3663C29.0393 46.9049 29.4091 47.2895 29.9228 47.5511L30.2584 47.7281L34.5735 47.7512L38.8886 47.7742L39.1968 48.2897C40.5324 50.5209 41.9708 51.7364 44.3406 52.652C45.4434 53.0751 45.7036 53.0982 45.9845 52.7982C46.2516 52.5135 46.2447 52.2365 45.9502 51.4441C45.553 50.3516 45.2242 48.8206 45.2242 48.0204V47.7819L46.4776 47.7512C47.6694 47.7281 47.7379 47.7127 48.1078 47.5127C48.5667 47.2665 49.0735 46.6817 49.2858 46.174L49.4365 45.8047V38.4958V31.1868L49.2858 30.8252C49.1078 30.4021 48.7105 29.8866 48.368 29.6404C47.7653 29.2173 47.8954 29.225 41.3749 29.225H35.3612V24.6857C35.3612 19.5156 35.3817 19.6772 34.7653 18.9155C34.3886 18.4385 33.9502 18.177 33.368 18.0692C32.8406 17.9769 16.8749 17.9769 16.368 18.0692ZM33.4982 19.708C33.6215 19.7849 33.7858 19.9542 33.8543 20.0927C33.9845 20.3312 33.9913 20.5312 33.9913 27.2939C33.9913 34.1335 33.9913 34.2489 33.8543 34.4951C33.5735 35.0106 33.7242 34.9952 28.8749 34.9952C25.5187 34.9952 24.4639 35.0182 24.3338 35.0952C24.2379 35.149 23.9571 35.5337 23.7036 35.9492C22.6215 37.7341 21.7721 38.6189 20.4023 39.3882C19.9502 39.6344 19.5735 39.8267 19.5598 39.8114C19.5461 39.796 19.5941 39.5267 19.6762 39.219C20.005 37.8649 20.1352 35.7261 19.9091 35.3414C19.7379 35.0413 19.4708 34.9952 17.9365 34.9952C16.3201 34.9952 16.1899 34.9567 15.9091 34.4412C15.779 34.195 15.7721 34.0335 15.7721 27.317C15.7721 21.1928 15.7858 20.4081 15.8817 20.185C15.9982 19.8926 16.2447 19.6849 16.5598 19.6003C16.6694 19.5695 20.4776 19.5541 25.0187 19.5541C32.8201 19.5695 33.2858 19.5772 33.4982 19.708ZM47.6694 30.9637C47.7721 31.0484 47.916 31.2407 47.9776 31.3869C48.0941 31.6331 48.1009 32.1255 48.1009 38.4958C48.1009 44.8661 48.0941 45.3584 47.9776 45.6046C47.916 45.7508 47.7721 45.9432 47.6694 46.0278C47.4913 46.1817 47.3543 46.1894 45.8269 46.2278L44.1831 46.2663L44.0187 46.4817C43.868 46.6817 43.8543 46.7664 43.8543 47.5127C43.8543 48.4128 43.9913 49.6207 44.1899 50.4285C44.2653 50.7209 44.3132 50.9671 44.2995 50.9825C44.2379 51.0517 43.1009 50.4208 42.5941 50.0439C41.8475 49.4899 40.868 48.3282 40.2379 47.2665C39.9571 46.7972 39.6694 46.3817 39.5872 46.3278C39.4708 46.2586 38.3543 46.2355 35.0324 46.2278C30.2653 46.2278 30.4502 46.2432 30.0872 45.8047L29.916 45.5969L29.8954 41.0731L29.8817 36.5416L31.779 36.5185L33.6831 36.4954L34.0735 36.28C34.5598 36.0107 35.0393 35.4183 35.2242 34.8567C35.3475 34.4951 35.3612 34.2566 35.3612 32.6025V30.7637L41.416 30.7791C47.4228 30.8022 47.4776 30.8022 47.6694 30.9637Z" fill="#7C919E"/>
<path d="M24.1284 21.7314C22.5051 22.0853 21.1147 23.4393 20.6284 25.1473C20.4229 25.8474 20.3749 27.1707 20.5256 27.8401C20.8407 29.2403 21.6969 30.4867 22.7996 31.133C23.4982 31.533 24.053 31.6869 24.8818 31.6869C25.6969 31.6869 26.1832 31.5561 26.964 31.1099L27.5804 30.7637L28.0051 31.2253C28.3612 31.61 28.4708 31.6869 28.6763 31.6869C29.053 31.6869 29.3681 31.3407 29.3681 30.9252C29.3681 30.6406 29.3201 30.5636 28.9434 30.1405L28.5256 29.6635L28.8201 29.0403C29.2174 28.1863 29.3612 27.4323 29.3201 26.4245C29.2653 25.1089 28.8612 24.101 28.0256 23.1547C27.1558 22.1853 26.2859 21.7621 25.053 21.7237C24.6421 21.7083 24.2243 21.716 24.1284 21.7314ZM25.6695 23.3393C26.2448 23.5086 26.6763 23.8009 27.101 24.301C27.5119 24.7857 27.69 25.1396 27.8612 25.8013C28.0393 26.4629 27.9777 27.4246 27.7243 28.0555L27.5325 28.5402L27.0393 27.994C26.6078 27.5247 26.5051 27.4554 26.2927 27.4554C25.964 27.4554 25.7311 27.6324 25.6352 27.9478C25.5325 28.3094 25.6352 28.5633 26.1352 29.1249C26.5393 29.5865 26.5462 29.6096 26.4229 29.725C26.1558 29.9481 25.4366 30.1482 24.8818 30.1482C23.6695 30.1482 22.6489 29.4557 22.1215 28.2632C21.8612 27.6785 21.779 27.2169 21.8133 26.4706C21.8338 25.9167 21.8818 25.709 22.053 25.2781C22.7037 23.724 24.2106 22.9162 25.6695 23.3393Z" fill="#7C919E"/>
<path d="M38.6833 33.5642C38.5737 33.6181 38.4231 33.7335 38.3546 33.8181C38.1696 34.0566 35.3409 42.4503 35.334 42.7811C35.3272 43.5582 36.2724 43.789 36.5874 43.0889C36.6559 42.9273 36.8135 42.5042 36.9368 42.1272L37.1628 41.4578H38.9847H40.8066L40.971 41.9733C41.2929 42.9966 41.4368 43.2889 41.6696 43.4197C42.1011 43.6736 42.6217 43.3274 42.6217 42.7811C42.6217 42.5349 39.9025 34.2874 39.7039 33.9412C39.4847 33.5565 39.0258 33.3873 38.6833 33.5642ZM39.6285 37.9496C39.9573 38.9343 40.2244 39.7806 40.2244 39.8345C40.2244 39.896 39.8751 39.9191 39.0053 39.9191C38.334 39.9191 37.7655 39.9037 37.745 39.8807C37.7039 39.8345 38.9368 36.1493 38.9916 36.1493C39.0121 36.1493 39.2929 36.9571 39.6285 37.9496Z" fill="#7C919E"/>
</svg>
